# xmcd CD database file
#
# Track frame offsets:
#	150
#	24360
#	45432
#	53930
#
# Disc length: 1053 seconds
#
# Revision: 0
# Processed by: cddbd v1.5.1PL0 Copyright (c) Steve Scherf et al.
# Submitted via: CDex 1.51
#
DISCID=27041b04
DTITLE=林邦洋 - そして僕らの毎日
DYEAR=1900
DGENRE=Japanese Pop
TTITLE0=そして僕らの毎日
TTITLE1=タンブルウィード
TTITLE2=デジタリアン
TTITLE3=そして僕らの毎日 Version.2
EXTD=
EXTT0=
EXTT1=
EXTT2=
EXTT3=
PLAYORDER=
